<?xml version="1.0" encoding="UTF-8" standalone="no"?>
<svg
   xmlns:dc="http://purl.org/dc/elements/1.1/"
   xmlns:cc="http://creativecommons.org/ns#"
   xmlns:rdf="http://www.w3.org/1999/02/22-rdf-syntax-ns#"
   xmlns:svg="http://www.w3.org/2000/svg"
   xmlns="http://www.w3.org/2000/svg"
   xml:space="preserve"
   style="enable-background:new 0 0 398.8 108.6;"
   viewBox="0 0 398.8 108.6"
   y="0px"
   x="0px"
   id="Layer_1"
   version="1.1"><metadata
     id="metadata3735"><rdf:RDF><cc:Work
         rdf:about=""><dc:format>image/svg+xml</dc:format><dc:type
           rdf:resource="http://purl.org/dc/dcmitype/StillImage" /><dc:title></dc:title></cc:Work></rdf:RDF></metadata><defs
     id="defs3733" /><g
     style="fill:#ffffff"
     id="g3692"><path
       style="fill:#ffffff"
       id="path3680"
       d="M153.8,36.4c0-1.4-0.8-2.2-2.2-2.3l-0.1,0h-15.1c-3.2,0-5.3,0.6-6.4,1.8c-1.2,1.3-1.8,3-1.8,5.3v7.8c0,0.7,0,1.3-0.1,1.8   c-0.3,0.9-1.1,1.4-2.6,1.4h-19c-1.6,0-2.4,0.8-2.4,2.3c0,1.5,0.8,2.3,2.4,2.3h18.5c1.7,0,3-0.1,4-0.4c1-0.3,1.8-0.7,2.5-1.4   c1.2-1.3,1.8-3,1.8-5.2v-7.8c0-1.1,0-1.6,0.1-1.8c0.2-1,1.1-1.4,2.6-1.4h15.5C152.9,38.7,153.8,37.9,153.8,36.4" /><path
       style="fill:#ffffff"
       id="path3682"
       d="M187.6,34.1l-0.1,0h-15.1c-3.2,0-5.3,0.6-6.4,1.8c-1.2,1.3-1.8,3-1.8,5.3v7.8c0,0.8,0,1.4-0.1,1.8   c-0.3,0.9-1.1,1.4-2.6,1.4h-19c-1.6,0-2.4,0.8-2.4,2.3c0,1.5,0.8,2.3,2.4,2.3h18.5c1.7,0,3.1-0.1,4-0.4c1-0.3,1.8-0.7,2.5-1.4   c1.2-1.3,1.8-3,1.8-5.2v-7.8c0-0.9,0-1.5,0.1-1.8c0.2-1,1.1-1.4,2.6-1.4h15.5c2.1,0,2.5-1.3,2.5-2.3C189.8,35,189,34.2,187.6,34.1" /><path
       style="fill:#ffffff"
       id="path3684"
       d="M235.9,43.1l-21.8,0c-1.5,0-2.4,0.8-2.4,2.3c0,1.5,0.8,2.3,2.3,2.3h21c2.3,0,4.1-0.6,5.3-1.8c1.2-1.2,1.9-2.6,1.9-4.1   c0,0,0-1.9,0-1.9c0-1.9-0.7-3.3-2.3-4.4c-1.4-1-3.1-1.4-5-1.4h-32.3c-3.5,0-6.1,0.9-7.7,2.7c-1.6,1.8-2.4,4-2.5,6.7   c0,0,0,3.8,0,3.8c0,3.4,1,6,3,7.6c1.5,1.3,3.9,1.9,7.2,1.9h36.7c2.5,0,3-1.3,3-2.3c0-0.7-0.2-1.3-0.6-1.7c-0.5-0.4-1.2-0.7-2.1-0.6   h-37.1c-3.4,0-5.1-1.6-5.1-5l0-3.7c0-1.8,0.6-3.1,1.7-3.9c0.8-0.6,2.2-0.9,4-0.9h32.8c0.9,0,1.3,0.4,1.3,1.3c0,0,0,1.9,0,1.9   C237.2,42.4,237.1,43,235.9,43.1" /><path
       style="fill:#ffffff"
       id="path3686"
       d="M293.6,52.2h-37.1c-3.4,0-5.1-1.6-5.1-5v-3.7c0-1.8,0.6-3.1,1.7-3.9c0.8-0.6,2.2-0.9,4-0.9h23.6c1.5,0,2.4-0.8,2.4-2.3   c0-1.5-0.8-2.3-2.3-2.3h-24.3c-3.5,0-6.1,0.9-7.7,2.7c-1.6,1.8-2.4,4-2.5,6.7v3.8c0,3.4,1,6,3,7.6c1.5,1.3,3.9,1.9,7.2,1.9h36.7   c2.5,0,3-1.3,3-2.3c0-0.7-0.2-1.3-0.6-1.7C295.2,52.4,294.5,52.1,293.6,52.2" /><path
       style="fill:#ffffff"
       id="path3688"
       d="M343.6,47.2c0,1.9-0.6,3.2-1.7,4.1c-0.8,0.6-2.2,0.9-4,0.9h-28.4c-1.8,0-3.2-0.3-4-0.9c-1.2-0.8-1.8-2.2-1.8-4.1v-3.8   c0-1.7,0.4-2.9,1.2-3.6c0.8-0.8,2.1-1.1,3.9-1.1h29.6c1.8,0,3.2,0.4,3.9,1.1c0.7,0.7,1.1,1.9,1.2,3.6V47.2 M345.7,35.9   c-1.5-1.3-3.9-1.9-7.2-1.9h-29.5c-1.7,0-3.2,0.1-4.3,0.4c-3.9,1-5.9,4-6,8.9c0,0,0,0.1,0,3.7c0,2.8,0.8,5.1,2.5,7   c1.6,1.8,4.2,2.7,7.7,2.7h29.5c3.5,0,6.1-0.9,7.8-2.7c1.6-1.8,2.5-4.1,2.5-6.9v-3.7C348.7,40.1,347.6,37.6,345.7,35.9z" /><path
       style="fill:#ffffff"
       id="path3690"
       d="M91.5,34.1H60c-1.7,0-3.2,0.1-4.3,0.4c-3.9,1-5.9,4-6,8.9v3.7c0,2.8,0.8,5.1,2.5,7c1.6,1.8,4.2,2.7,7.7,2.7h24.3   c1.5-0.1,2.3-0.9,2.3-2.3l0-6.5c-0.1-1.5-0.9-2.3-2.4-2.3c-1.5,0-2.3,0.8-2.3,2.4c0,0,0,3.5,0,4.1c-0.7,0-21.3,0-21.3,0   c-1.8,0-3.2-0.3-4-0.9c-1.2-0.8-1.7-2.2-1.7-4.1l0-3.7c0-1.7,0.4-2.9,1.2-3.6c0.8-0.8,2.1-1.1,3.9-1.1h32.2c1.5,0,2.3,0.5,2.6,1.4   c0.1,0.2,0.1,0.7,0.1,1.8v14.9h4.9V41.1c0-2.2-0.6-4-1.8-5.3C96.8,34.7,94.7,34.1,91.5,34.1" /></g><g
     style="fill:#ffffff"
     id="g3728"><path
       style="fill:#ffffff"
       id="path3694"
       d="M77.4,71.4h3.8c0.7,0,1.4,0.1,2,0.2c0.6,0.1,1.1,0.3,1.6,0.6c0.4,0.3,0.8,0.7,1,1.1c0.2,0.5,0.4,1,0.4,1.7   c0,1-0.3,1.7-0.8,2.2c-0.5,0.5-1.2,0.9-2.1,1.1v0c0.5,0,0.9,0.2,1.3,0.3c0.4,0.2,0.7,0.4,1,0.7c0.3,0.3,0.5,0.6,0.7,1   c0.2,0.4,0.2,0.9,0.2,1.4c0,0.8-0.1,1.4-0.4,1.9c-0.3,0.5-0.7,0.9-1.2,1.2c-0.5,0.3-1.1,0.5-1.7,0.6c-0.7,0.1-1.3,0.2-2.1,0.2h-3.8   V71.4z M79.5,77.4h1.1c0.5,0,1,0,1.4-0.1c0.4,0,0.8-0.1,1.2-0.3c0.3-0.2,0.6-0.4,0.8-0.7c0.2-0.3,0.3-0.7,0.3-1.2   c0-0.4-0.1-0.8-0.2-1c-0.2-0.3-0.4-0.5-0.6-0.7c-0.3-0.2-0.5-0.3-0.8-0.3c-0.3-0.1-0.6-0.1-0.9-0.1h-2.1V77.4z M79.5,83.9H81   c0.5,0,0.9,0,1.3-0.1c0.4-0.1,0.8-0.2,1.1-0.3c0.3-0.2,0.6-0.4,0.8-0.7c0.2-0.3,0.3-0.7,0.3-1.2c0-0.6-0.1-1-0.3-1.3   c-0.2-0.3-0.5-0.6-0.9-0.8c-0.4-0.2-0.8-0.3-1.2-0.3c-0.4-0.1-0.9-0.1-1.3-0.1h-1.3V83.9z" /><path
       style="fill:#ffffff"
       id="path3696"
       d="M103.3,79.7c0,2-0.5,3.5-1.4,4.6c-1,1-2.3,1.6-4.1,1.6c-1.8,0-3.1-0.5-4.1-1.6c-1-1-1.4-2.6-1.4-4.6v-8.3h2v8.1   c0,0.7,0.1,1.3,0.2,1.9c0.1,0.6,0.3,1,0.6,1.5c0.3,0.4,0.6,0.7,1.1,0.9c0.4,0.2,1,0.3,1.7,0.3c0.7,0,1.2-0.1,1.7-0.3   c0.4-0.2,0.8-0.5,1.1-0.9c0.3-0.4,0.5-0.9,0.6-1.5c0.1-0.6,0.2-1.2,0.2-1.9v-8.1h2V79.7z" /><path
       style="fill:#ffffff"
       id="path3698"
       d="M115.6,73.5c-0.3-0.1-0.5-0.2-0.7-0.3c-0.2-0.1-0.4-0.1-0.6-0.2c-0.2-0.1-0.4-0.1-0.6-0.1c-0.2,0-0.5,0-0.7,0   c-0.3,0-0.6,0-0.9,0.1c-0.3,0.1-0.6,0.2-0.8,0.3c-0.2,0.1-0.4,0.3-0.6,0.6c-0.1,0.2-0.2,0.5-0.2,0.9c0,0.5,0.1,0.8,0.4,1.1   c0.3,0.3,0.7,0.6,1.1,0.8c0.5,0.2,0.9,0.5,1.5,0.7c0.5,0.2,1,0.5,1.5,0.9c0.5,0.4,0.8,0.8,1.1,1.3c0.3,0.5,0.4,1.2,0.4,1.9   c0,0.8-0.1,1.4-0.4,1.9c-0.3,0.5-0.6,1-1.1,1.3c-0.5,0.3-1,0.6-1.6,0.7c-0.6,0.2-1.3,0.2-2,0.2c-0.5,0-1-0.1-1.5-0.2   c-0.5-0.1-1-0.3-1.4-0.4l0.2-1.9c0.2,0.1,0.4,0.1,0.6,0.2c0.2,0.1,0.5,0.2,0.7,0.2c0.3,0.1,0.5,0.1,0.8,0.2c0.3,0,0.5,0.1,0.8,0.1   c0.3,0,0.6,0,0.9-0.1c0.3-0.1,0.6-0.2,0.9-0.4c0.3-0.2,0.5-0.4,0.7-0.7c0.2-0.3,0.3-0.6,0.3-1.1c0-0.5-0.1-1-0.4-1.3   c-0.3-0.3-0.7-0.6-1.1-0.9c-0.5-0.3-0.9-0.5-1.5-0.7c-0.5-0.2-1-0.5-1.5-0.8c-0.5-0.3-0.8-0.7-1.1-1.2c-0.3-0.5-0.4-1.1-0.4-1.8   c0-0.6,0.1-1.2,0.4-1.7c0.2-0.5,0.6-0.9,1-1.2c0.4-0.3,0.9-0.6,1.4-0.7c0.6-0.2,1.2-0.2,1.8-0.2c0.5,0,1,0,1.5,0.1   c0.5,0.1,1,0.2,1.5,0.4L115.6,73.5z" /><path
       style="fill:#ffffff"
       id="path3700"
       d="M122.1,71.4h2v14.2h-2V71.4z" /><path
       style="fill:#ffffff"
       id="path3702"
       d="M130.3,71.4h2.8l6.3,11.4h0V71.4h2v14.2h-2.6l-6.4-11.7h0v11.7h-2V71.4z" /><path
       style="fill:#ffffff"
       id="path3704"
       d="M147.6,71.4h8v1.8h-5.9v4.1h5.4v1.8h-5.4v4.7h5.9v1.8h-8V71.4z" /><path
       style="fill:#ffffff"
       id="path3706"
       d="M167.8,73.5c-0.3-0.1-0.5-0.2-0.7-0.3c-0.2-0.1-0.4-0.1-0.6-0.2c-0.2-0.1-0.4-0.1-0.6-0.1c-0.2,0-0.5,0-0.7,0   c-0.3,0-0.6,0-0.9,0.1c-0.3,0.1-0.6,0.2-0.8,0.3c-0.2,0.1-0.4,0.3-0.6,0.6c-0.1,0.2-0.2,0.5-0.2,0.9c0,0.5,0.1,0.8,0.4,1.1   c0.3,0.3,0.7,0.6,1.1,0.8c0.5,0.2,0.9,0.5,1.5,0.7c0.5,0.2,1,0.5,1.5,0.9c0.5,0.4,0.8,0.8,1.1,1.3c0.3,0.5,0.4,1.2,0.4,1.9   c0,0.8-0.1,1.4-0.4,1.9c-0.3,0.5-0.6,1-1.1,1.3c-0.5,0.3-1,0.6-1.6,0.7c-0.6,0.2-1.3,0.2-2,0.2c-0.5,0-1-0.1-1.5-0.2   c-0.5-0.1-1-0.3-1.4-0.4l0.2-1.9c0.2,0.1,0.4,0.1,0.6,0.2c0.2,0.1,0.5,0.2,0.7,0.2c0.3,0.1,0.5,0.1,0.8,0.2c0.3,0,0.5,0.1,0.8,0.1   c0.3,0,0.6,0,0.9-0.1c0.3-0.1,0.6-0.2,0.9-0.4c0.3-0.2,0.5-0.4,0.7-0.7c0.2-0.3,0.3-0.6,0.3-1.1c0-0.5-0.1-1-0.4-1.3   c-0.3-0.3-0.7-0.6-1.1-0.9c-0.5-0.3-0.9-0.5-1.5-0.7c-0.5-0.2-1-0.5-1.5-0.8c-0.5-0.3-0.8-0.7-1.1-1.2c-0.3-0.5-0.4-1.1-0.4-1.8   c0-0.6,0.1-1.2,0.4-1.7c0.2-0.5,0.6-0.9,1-1.2c0.4-0.3,0.9-0.6,1.4-0.7c0.6-0.2,1.2-0.2,1.8-0.2c0.5,0,1,0,1.5,0.1   c0.5,0.1,1,0.2,1.5,0.4L167.8,73.5z" /><path
       style="fill:#ffffff"
       id="path3708"
       d="M180.5,73.5c-0.3-0.1-0.5-0.2-0.7-0.3c-0.2-0.1-0.4-0.1-0.6-0.2c-0.2-0.1-0.4-0.1-0.6-0.1c-0.2,0-0.5,0-0.7,0   c-0.3,0-0.6,0-0.9,0.1c-0.3,0.1-0.6,0.2-0.8,0.3c-0.2,0.1-0.4,0.3-0.6,0.6c-0.1,0.2-0.2,0.5-0.2,0.9c0,0.5,0.1,0.8,0.4,1.1   c0.3,0.3,0.7,0.6,1.1,0.8c0.5,0.2,0.9,0.5,1.5,0.7c0.5,0.2,1,0.5,1.5,0.9c0.5,0.4,0.8,0.8,1.1,1.3c0.3,0.5,0.4,1.2,0.4,1.9   c0,0.8-0.1,1.4-0.4,1.9c-0.3,0.5-0.6,1-1.1,1.3c-0.5,0.3-1,0.6-1.6,0.7c-0.6,0.2-1.3,0.2-2,0.2c-0.5,0-1-0.1-1.5-0.2   c-0.5-0.1-1-0.3-1.4-0.4l0.2-1.9c0.2,0.1,0.4,0.1,0.6,0.2c0.2,0.1,0.5,0.2,0.7,0.2c0.3,0.1,0.5,0.1,0.8,0.2c0.3,0,0.5,0.1,0.8,0.1   c0.3,0,0.6,0,0.9-0.1c0.3-0.1,0.6-0.2,0.9-0.4c0.3-0.2,0.5-0.4,0.7-0.7c0.2-0.3,0.3-0.6,0.3-1.1c0-0.5-0.1-1-0.4-1.3   c-0.3-0.3-0.7-0.6-1.1-0.9c-0.5-0.3-0.9-0.5-1.5-0.7c-0.5-0.2-1-0.5-1.5-0.8c-0.5-0.3-0.8-0.7-1.1-1.2c-0.3-0.5-0.4-1.1-0.4-1.8   c0-0.6,0.1-1.2,0.4-1.7c0.2-0.5,0.6-0.9,1-1.2c0.4-0.3,0.9-0.6,1.4-0.7c0.6-0.2,1.2-0.2,1.8-0.2c0.5,0,1,0,1.5,0.1   c0.5,0.1,1,0.2,1.5,0.4L180.5,73.5z" /><path
       style="fill:#ffffff"
       id="path3710"
       d="M200.8,73.5c-0.3-0.1-0.5-0.2-0.7-0.3c-0.2-0.1-0.4-0.1-0.6-0.2c-0.2-0.1-0.4-0.1-0.6-0.1c-0.2,0-0.5,0-0.7,0   c-0.3,0-0.6,0-0.9,0.1c-0.3,0.1-0.6,0.2-0.8,0.3c-0.2,0.1-0.4,0.3-0.6,0.6c-0.1,0.2-0.2,0.5-0.2,0.9c0,0.5,0.1,0.8,0.4,1.1   c0.3,0.3,0.7,0.6,1.1,0.8c0.5,0.2,0.9,0.5,1.5,0.7c0.5,0.2,1,0.5,1.5,0.9c0.5,0.4,0.8,0.8,1.1,1.3c0.3,0.5,0.4,1.2,0.4,1.9   c0,0.8-0.1,1.4-0.4,1.9c-0.3,0.5-0.6,1-1.1,1.3c-0.5,0.3-1,0.6-1.6,0.7c-0.6,0.2-1.3,0.2-2,0.2c-0.5,0-1-0.1-1.5-0.2   c-0.5-0.1-1-0.3-1.4-0.4l0.2-1.9c0.2,0.1,0.4,0.1,0.6,0.2c0.2,0.1,0.5,0.2,0.7,0.2c0.3,0.1,0.5,0.1,0.8,0.2c0.3,0,0.5,0.1,0.8,0.1   c0.3,0,0.6,0,0.9-0.1c0.3-0.1,0.6-0.2,0.9-0.4c0.3-0.2,0.5-0.4,0.7-0.7c0.2-0.3,0.3-0.6,0.3-1.1c0-0.5-0.1-1-0.4-1.3   c-0.3-0.3-0.7-0.6-1.1-0.9c-0.5-0.3-0.9-0.5-1.5-0.7c-0.5-0.2-1-0.5-1.5-0.8c-0.5-0.3-0.8-0.7-1.1-1.2c-0.3-0.5-0.4-1.1-0.4-1.8   c0-0.6,0.1-1.2,0.4-1.7c0.2-0.5,0.6-0.9,1-1.2c0.4-0.3,0.9-0.6,1.4-0.7c0.6-0.2,1.2-0.2,1.8-0.2c0.5,0,1,0,1.5,0.1   c0.5,0.1,1,0.2,1.5,0.4L200.8,73.5z" /><path
       style="fill:#ffffff"
       id="path3712"
       d="M206,78.5c0-1.1,0.2-2,0.5-2.9c0.3-0.9,0.8-1.7,1.3-2.3c0.6-0.7,1.3-1.2,2.2-1.5c0.8-0.4,1.8-0.6,2.9-0.6   c1.1,0,2,0.2,2.9,0.6c0.8,0.4,1.6,0.9,2.1,1.5c0.6,0.7,1,1.4,1.3,2.3c0.3,0.9,0.5,1.9,0.5,2.9c0,1.1-0.2,2.1-0.5,3   c-0.3,0.9-0.7,1.7-1.3,2.3c-0.6,0.7-1.3,1.2-2.1,1.5c-0.8,0.4-1.8,0.5-2.9,0.5c-1.1,0-2.1-0.2-2.9-0.5c-0.8-0.4-1.6-0.9-2.1-1.5   c-0.6-0.7-1-1.4-1.3-2.3C206.2,80.5,206,79.5,206,78.5z M208.2,78.5c0,0.7,0.1,1.4,0.3,2.1c0.2,0.7,0.5,1.3,0.8,1.8   c0.4,0.5,0.9,0.9,1.5,1.3c0.6,0.3,1.3,0.5,2.1,0.5c0.8,0,1.5-0.2,2.1-0.5c0.6-0.3,1.1-0.7,1.5-1.3s0.7-1.1,0.8-1.8   c0.2-0.7,0.3-1.3,0.3-2.1c0-0.7-0.1-1.4-0.3-2.1c-0.2-0.7-0.5-1.3-0.9-1.8c-0.4-0.5-0.9-0.9-1.5-1.2c-0.6-0.3-1.3-0.5-2.1-0.5   c-0.8,0-1.5,0.2-2.1,0.5c-0.6,0.3-1.1,0.7-1.5,1.2c-0.4,0.5-0.7,1.1-0.9,1.8C208.3,77.1,208.2,77.8,208.2,78.5z" /><path
       style="fill:#ffffff"
       id="path3714"
       d="M224.8,71.4h2v12.4h5.9v1.8h-8V71.4z" /><path
       style="fill:#ffffff"
       id="path3716"
       d="M248.3,79.7c0,2-0.5,3.5-1.4,4.6c-1,1-2.3,1.6-4.1,1.6c-1.8,0-3.1-0.5-4.1-1.6c-1-1-1.4-2.6-1.4-4.6v-8.3h2v8.1   c0,0.7,0.1,1.3,0.2,1.9c0.1,0.6,0.3,1,0.6,1.5c0.3,0.4,0.6,0.7,1.1,0.9c0.4,0.2,1,0.3,1.7,0.3c0.7,0,1.2-0.1,1.7-0.3   c0.4-0.2,0.8-0.5,1.1-0.9c0.3-0.4,0.5-0.9,0.6-1.5c0.1-0.6,0.2-1.2,0.2-1.9v-8.1h2V79.7z" /><path
       style="fill:#ffffff"
       id="path3718"
       d="M257,73.2h-4.4v-1.8h10.9v1.8H259v12.4h-2V73.2z" /><path
       style="fill:#ffffff"
       id="path3720"
       d="M267.7,71.4h2v14.2h-2V71.4z" /><path
       style="fill:#ffffff"
       id="path3722"
       d="M274.8,78.5c0-1.1,0.2-2,0.5-2.9c0.3-0.9,0.8-1.7,1.3-2.3c0.6-0.7,1.3-1.2,2.2-1.5c0.8-0.4,1.8-0.6,2.9-0.6   c1.1,0,2,0.2,2.9,0.6c0.8,0.4,1.6,0.9,2.1,1.5c0.6,0.7,1,1.4,1.3,2.3c0.3,0.9,0.5,1.9,0.5,2.9c0,1.1-0.2,2.1-0.5,3   c-0.3,0.9-0.7,1.7-1.3,2.3c-0.6,0.7-1.3,1.2-2.1,1.5c-0.8,0.4-1.8,0.5-2.9,0.5c-1.1,0-2.1-0.2-2.9-0.5c-0.8-0.4-1.6-0.9-2.1-1.5   c-0.6-0.7-1-1.4-1.3-2.3C275,80.5,274.8,79.5,274.8,78.5z M277,78.5c0,0.7,0.1,1.4,0.3,2.1c0.2,0.7,0.5,1.3,0.8,1.8   c0.4,0.5,0.9,0.9,1.5,1.3c0.6,0.3,1.3,0.5,2.1,0.5c0.8,0,1.5-0.2,2.1-0.5c0.6-0.3,1.1-0.7,1.5-1.3c0.4-0.5,0.7-1.1,0.8-1.8   c0.2-0.7,0.3-1.3,0.3-2.1c0-0.7-0.1-1.4-0.3-2.1c-0.2-0.7-0.5-1.3-0.9-1.8c-0.4-0.5-0.9-0.9-1.5-1.2c-0.6-0.3-1.3-0.5-2.1-0.5   c-0.8,0-1.5,0.2-2.1,0.5c-0.6,0.3-1.1,0.7-1.5,1.2c-0.4,0.5-0.7,1.1-0.9,1.8C277.1,77.1,277,77.8,277,78.5z" /><path
       style="fill:#ffffff"
       id="path3724"
       d="M293.6,71.4h2.8l6.3,11.4h0V71.4h2v14.2h-2.6l-6.4-11.7h0v11.7h-2V71.4z" /><path
       style="fill:#ffffff"
       id="path3726"
       d="M317.3,73.5c-0.3-0.1-0.5-0.2-0.7-0.3c-0.2-0.1-0.4-0.1-0.6-0.2c-0.2-0.1-0.4-0.1-0.6-0.1c-0.2,0-0.5,0-0.7,0   c-0.3,0-0.6,0-0.9,0.1c-0.3,0.1-0.6,0.2-0.8,0.3c-0.2,0.1-0.4,0.3-0.6,0.6c-0.1,0.2-0.2,0.5-0.2,0.9c0,0.5,0.1,0.8,0.4,1.1   c0.3,0.3,0.7,0.6,1.1,0.8c0.5,0.2,0.9,0.5,1.5,0.7c0.5,0.2,1,0.5,1.5,0.9c0.5,0.4,0.8,0.8,1.1,1.3c0.3,0.5,0.4,1.2,0.4,1.9   c0,0.8-0.1,1.4-0.4,1.9c-0.3,0.5-0.6,1-1.1,1.3c-0.5,0.3-1,0.6-1.6,0.7c-0.6,0.2-1.3,0.2-2,0.2c-0.5,0-1-0.1-1.5-0.2   c-0.5-0.1-1-0.3-1.4-0.4l0.2-1.9c0.2,0.1,0.4,0.1,0.6,0.2c0.2,0.1,0.5,0.2,0.7,0.2c0.3,0.1,0.5,0.1,0.8,0.2c0.3,0,0.5,0.1,0.8,0.1   c0.3,0,0.6,0,0.9-0.1c0.3-0.1,0.6-0.2,0.9-0.4c0.3-0.2,0.5-0.4,0.7-0.7c0.2-0.3,0.3-0.6,0.3-1.1c0-0.5-0.1-1-0.4-1.3   c-0.3-0.3-0.7-0.6-1.1-0.9c-0.5-0.3-0.9-0.5-1.5-0.7c-0.5-0.2-1-0.5-1.5-0.8c-0.5-0.3-0.8-0.7-1.1-1.2c-0.3-0.5-0.4-1.1-0.4-1.8   c0-0.6,0.1-1.2,0.4-1.7c0.2-0.5,0.6-0.9,1-1.2c0.4-0.3,0.9-0.6,1.4-0.7c0.6-0.2,1.2-0.2,1.8-0.2c0.5,0,1,0,1.5,0.1   c0.5,0.1,1,0.2,1.5,0.4L317.3,73.5z" /></g></svg>